<svg viewBox="200 200 721 721" fill="none" xmlns="http://www.w3.org/2000/svg">
<path d="M247.532 360.26H600.812V480.52H367.792C363.64 480.52 360.26 483.9 360.26 488.052V593.279C360.26 597.432 363.64 600.812 367.792 600.812H600.812V721.072H488.052C483.9 721.072 480.52 724.452 480.52 728.604V833.831C480.52 837.984 483.9 841.364 488.052 841.364H593.28C597.432 841.364 600.812 837.984 600.812 833.831V721.072H713.572C717.724 721.072 721.104 717.692 721.104 713.539V608.312C721.104 604.16 717.724 600.78 713.572 600.78H600.812V480.52H713.572C717.724 480.52 721.104 477.14 721.104 472.987V367.76C721.104 363.608 717.724 360.228 713.572 360.228H600.812V247.532C600.812 243.38 597.432 240 593.28 240H247.532C243.38 240 240 243.38 240 247.532V352.76C240 356.912 243.38 360.292 247.532 360.292V360.26Z" fill="black"/>
</svg>