<?xml version="1.0" encoding="UTF-8" standalone="no"?>
<!DOCTYPE svg PUBLIC "-//W3C//DTD SVG 1.1//EN" "http://www.w3.org/Graphics/SVG/1.1/DTD/svg11.dtd">
<svg width="100%" height="100%" viewBox="0 0 1192 237" version="1.1" xmlns="http://www.w3.org/2000/svg" xmlns:xlink="http://www.w3.org/1999/xlink" xml:space="preserve" xmlns:serif="http://www.serif.com/" style="fill-rule:evenodd;clip-rule:evenodd;stroke-linejoin:round;stroke-miterlimit:2;">
    <g transform="matrix(1,0,0,1,-169.672,-34.103)">
        <g transform="matrix(3.19127,0,0,3.19127,-1115.72,-1383.34)">
            <path d="M570.042,460.245L570.042,450.595C570.042,447.057 572.937,444.162 576.582,444.162C580.12,444.162 583.015,447.057 583.015,450.595L583.015,460.245L593.201,460.245C596.311,460.245 598.884,462.711 598.884,465.821C598.884,468.93 596.311,471.396 593.201,471.396L583.015,471.396L583.015,499.166C583.015,504.205 585.589,506.243 589.985,506.243C591.486,506.243 592.772,505.921 593.201,505.921C596.096,505.921 598.669,508.28 598.669,511.282C598.669,513.641 597.061,515.571 595.238,516.321C592.451,517.286 589.77,517.822 586.339,517.822C576.797,517.822 570.042,513.641 570.042,501.203L570.042,471.396L570,471.396L570,460.245L570.042,460.245Z" style="fill:rgb(0,51,129);fill-rule:nonzero;"/>
        </g>
        <g transform="matrix(342.168,0,0,342.168,153.59,266.093)">
            <path d="M0.32,0.012C0.408,0.012 0.465,-0.018 0.512,-0.063C0.523,-0.072 0.529,-0.085 0.529,-0.101C0.529,-0.13 0.506,-0.154 0.477,-0.154C0.463,-0.154 0.451,-0.147 0.444,-0.141C0.411,-0.113 0.374,-0.094 0.326,-0.094C0.233,-0.094 0.168,-0.169 0.168,-0.263L0.168,-0.265C0.168,-0.357 0.233,-0.433 0.321,-0.433C0.369,-0.433 0.403,-0.414 0.434,-0.388C0.442,-0.382 0.455,-0.376 0.47,-0.376C0.501,-0.376 0.526,-0.4 0.526,-0.431C0.526,-0.451 0.515,-0.466 0.507,-0.473C0.462,-0.512 0.405,-0.539 0.322,-0.539C0.163,-0.539 0.047,-0.413 0.047,-0.263L0.047,-0.261C0.047,-0.111 0.163,0.012 0.32,0.012Z" style="fill:rgb(0,51,129);fill-rule:nonzero;"/>
        </g>
        <g transform="matrix(2.47574,0,0,2.47574,-658.833,-1112.89)">
            <g transform="matrix(138.209,0,0,138.209,394.77,557)">
                <path d="M0.327,0.012C0.49,0.012 0.61,-0.113 0.61,-0.263L0.61,-0.265C0.61,-0.416 0.491,-0.539 0.329,-0.539C0.167,-0.539 0.047,-0.414 0.047,-0.263L0.047,-0.261C0.047,-0.111 0.166,0.012 0.327,0.012ZM0.329,-0.094C0.235,-0.094 0.168,-0.171 0.168,-0.263L0.168,-0.265C0.168,-0.357 0.23,-0.433 0.327,-0.433C0.422,-0.433 0.489,-0.356 0.489,-0.263L0.489,-0.261C0.489,-0.17 0.427,-0.094 0.329,-0.094Z" style="fill:rgb(0,51,129);fill-rule:nonzero;"/>
            </g>
            <g transform="matrix(138.209,0,0,138.209,485.574,557)">
                <path d="M0.076,-0.055C0.076,-0.021 0.103,0.005 0.136,0.005C0.17,0.005 0.197,-0.022 0.197,-0.055L0.197,-0.211C0.197,-0.336 0.256,-0.402 0.342,-0.417C0.369,-0.422 0.39,-0.443 0.39,-0.475C0.39,-0.51 0.368,-0.535 0.33,-0.535C0.277,-0.535 0.225,-0.485 0.197,-0.419L0.197,-0.473C0.197,-0.507 0.17,-0.534 0.136,-0.534C0.102,-0.534 0.076,-0.507 0.076,-0.473L0.076,-0.055Z" style="fill:rgb(0,51,129);fill-rule:nonzero;"/>
            </g>
        </g>
        <g transform="matrix(2.47574,0,0,2.47574,-308.47,-1112.89)">
            <g transform="matrix(138.209,0,0,138.209,449.501,557)">
                <path d="M0.167,-0.301C0.178,-0.383 0.23,-0.44 0.304,-0.44C0.384,-0.44 0.43,-0.379 0.438,-0.301L0.167,-0.301ZM0.508,-0.058C0.517,-0.067 0.524,-0.08 0.524,-0.095C0.524,-0.123 0.503,-0.144 0.476,-0.144C0.462,-0.144 0.454,-0.14 0.445,-0.133C0.411,-0.105 0.371,-0.087 0.32,-0.087C0.242,-0.087 0.181,-0.135 0.168,-0.221L0.499,-0.221C0.53,-0.221 0.556,-0.245 0.556,-0.279C0.556,-0.401 0.473,-0.539 0.305,-0.539C0.154,-0.539 0.047,-0.415 0.047,-0.264L0.047,-0.262C0.047,-0.099 0.165,0.012 0.318,0.012C0.4,0.012 0.46,-0.015 0.508,-0.058Z" style="fill:rgb(0,51,129);fill-rule:nonzero;"/>
            </g>
            <g transform="matrix(138.209,0,0,138.209,532.979,557)">
                <path d="M0.32,0.012C0.408,0.012 0.465,-0.018 0.512,-0.063C0.523,-0.072 0.529,-0.085 0.529,-0.101C0.529,-0.13 0.506,-0.154 0.477,-0.154C0.463,-0.154 0.451,-0.147 0.444,-0.141C0.411,-0.113 0.374,-0.094 0.326,-0.094C0.233,-0.094 0.168,-0.169 0.168,-0.263L0.168,-0.265C0.168,-0.357 0.233,-0.433 0.321,-0.433C0.369,-0.433 0.403,-0.414 0.434,-0.388C0.442,-0.382 0.455,-0.376 0.47,-0.376C0.501,-0.376 0.526,-0.4 0.526,-0.431C0.526,-0.451 0.515,-0.466 0.507,-0.473C0.462,-0.512 0.405,-0.539 0.322,-0.539C0.163,-0.539 0.047,-0.413 0.047,-0.263L0.047,-0.261C0.047,-0.111 0.163,0.012 0.32,0.012Z" style="fill:rgb(0,51,129);fill-rule:nonzero;"/>
            </g>
            <g transform="matrix(138.209,0,0,138.209,611.896,557)">
                <path d="M0.257,0.01C0.367,0.01 0.453,-0.045 0.453,-0.156L0.453,-0.158C0.453,-0.253 0.366,-0.288 0.289,-0.312C0.227,-0.332 0.17,-0.348 0.17,-0.387L0.17,-0.389C0.17,-0.419 0.197,-0.441 0.244,-0.441C0.281,-0.441 0.325,-0.427 0.368,-0.405C0.376,-0.401 0.382,-0.399 0.392,-0.399C0.42,-0.399 0.442,-0.42 0.442,-0.448C0.442,-0.469 0.43,-0.485 0.413,-0.494C0.362,-0.521 0.303,-0.537 0.247,-0.537C0.142,-0.537 0.059,-0.476 0.059,-0.376L0.059,-0.374C0.059,-0.273 0.146,-0.241 0.224,-0.219C0.286,-0.2 0.342,-0.186 0.342,-0.145L0.342,-0.143C0.342,-0.108 0.312,-0.086 0.26,-0.086C0.212,-0.086 0.159,-0.103 0.108,-0.137C0.101,-0.141 0.092,-0.144 0.082,-0.144C0.054,-0.144 0.033,-0.122 0.033,-0.095C0.033,-0.075 0.043,-0.06 0.056,-0.053C0.117,-0.011 0.19,0.01 0.257,0.01Z" style="fill:rgb(0,51,129);fill-rule:nonzero;"/>
            </g>
        </g>
    </g>
</svg>
