<svg width="24" height="24" viewBox="0 0 40 40" xmlns="http://www.w3.org/2000/svg">
  <path d="M10 6C11.1 6 12 6.9 12 8V32C12 33.1 11.1 34 10 34C8.9 34 8 33.1 8 32V8C8 6.9 8.9 6 10 6ZM20 6C21.1 6 22 6.9 22 8V32C22 33.1 21.1 34 20 34C18.9 34 18 33.1 18 32V8C18 6.9 18.9 6 20 6ZM30 6C31.1 6 32 6.9 32 8V32C32 33.1 31.1 34 30 34C28.9 34 28 33.1 28 32V8C28 6.9 28.9 6 30 6ZM10 12C11.65 12 13 13.35 13 15C13 16.65 11.65 18 10 18C8.35 18 7 16.65 7 15C7 13.35 8.35 12 10 12ZM20 20C21.65 20 23 21.35 23 23C23 24.65 21.65 26 20 26C18.35 26 17 24.65 17 23C17 21.35 18.35 20 20 20ZM30 16C31.65 16 33 17.35 33 19C33 20.65 31.65 22 30 22C28.35 22 27 20.65 27 19C27 17.35 28.35 16 30 16Z" fill="currentColor"/>
</svg>
