<svg id="svg" version="1.1" width="600" height="712" xmlns="http://www.w3.org/2000/svg"><path d="M0.185 177.750 C 0.287 275.512,0.516 353.025,0.694 350.000 C 4.562 284.437,29.650 213.938,71.467 151.123 C 75.174 145.555,78.636 141.000,79.162 141.000 C 79.688 141.000,79.868 140.596,79.563 140.102 C 79.257 139.608,80.297 137.823,81.872 136.137 C 83.448 134.450,84.507 132.840,84.225 132.559 C 83.944 132.277,84.453 131.763,85.357 131.417 C 86.261 131.070,87.000 130.175,87.000 129.428 C 87.000 128.681,87.913 127.582,89.028 126.985 C 90.143 126.388,90.835 125.542,90.565 125.105 C 90.295 124.668,91.723 122.553,93.739 120.405 C 95.755 118.257,97.426 116.126,97.452 115.669 C 97.478 115.213,98.288 114.263,99.250 113.559 C 100.213 112.855,101.000 111.938,101.000 111.520 C 101.000 109.231,149.609 57.275,150.715 58.381 C 150.937 58.604,153.186 56.577,155.711 53.878 C 158.236 51.178,160.502 49.168,160.745 49.412 C 160.989 49.656,162.556 48.298,164.227 46.394 C 165.899 44.490,167.481 43.148,167.744 43.411 C 168.007 43.674,169.353 42.545,170.736 40.902 C 172.118 39.260,173.464 38.131,173.727 38.394 C 173.990 38.657,175.341 37.664,176.728 36.186 C 178.115 34.709,178.856 34.196,178.375 35.047 C 177.894 35.898,178.347 35.673,179.382 34.547 C 180.417 33.421,181.655 32.613,182.132 32.750 C 182.610 32.888,182.888 32.458,182.750 31.795 C 182.613 31.133,183.043 30.570,183.707 30.545 C 184.371 30.520,185.642 29.600,186.531 28.500 C 187.421 27.400,187.857 27.175,187.502 28.000 C 187.146 28.825,188.062 28.150,189.537 26.500 C 191.013 24.850,191.913 24.175,191.537 25.000 C 191.162 25.825,192.062 25.150,193.537 23.500 C 195.013 21.850,195.898 21.096,195.505 21.824 C 194.918 22.911,195.155 22.920,196.831 21.874 C 197.953 21.173,198.721 20.352,198.538 20.050 C 198.356 19.747,199.397 18.637,200.853 17.582 C 202.309 16.526,203.182 16.019,202.793 16.455 C 202.405 16.890,203.139 18.654,204.425 20.373 C 205.711 22.093,207.555 25.075,208.521 27.000 C 209.488 28.925,211.492 31.671,212.976 33.102 C 214.459 34.534,215.932 36.380,216.248 37.205 C 216.565 38.030,218.880 41.809,221.392 45.603 C 223.905 49.396,227.749 55.200,229.934 58.500 C 232.120 61.800,234.603 65.213,235.454 66.084 C 236.304 66.955,237.000 68.123,237.000 68.678 C 237.000 69.234,238.124 70.996,239.499 72.594 C 240.873 74.193,241.998 75.871,241.999 76.325 C 241.999 76.779,243.938 80.154,246.306 83.825 C 248.675 87.496,251.006 91.400,251.486 92.500 C 252.480 94.778,252.992 98.325,252.214 97.547 C 251.930 97.263,251.057 97.812,250.275 98.766 C 249.334 99.912,249.076 99.992,249.513 99.000 C 249.876 98.175,249.195 98.625,248.000 100.000 C 246.805 101.375,246.130 101.825,246.500 101.000 C 246.870 100.175,246.195 100.625,245.000 102.000 C 243.805 103.375,243.130 103.825,243.500 103.000 C 243.870 102.175,243.195 102.625,242.000 104.000 C 240.805 105.375,240.111 105.825,240.460 105.000 C 240.808 104.175,240.342 104.513,239.424 105.750 C 238.507 106.988,237.136 108.000,236.378 108.000 C 235.620 108.000,235.000 108.398,235.000 108.885 C 235.000 109.372,233.820 110.543,232.377 111.489 C 230.569 112.674,229.962 112.787,230.423 111.854 C 230.791 111.109,230.342 111.513,229.424 112.750 C 228.507 113.988,227.298 115.000,226.738 115.000 C 226.178 115.000,225.075 115.787,224.286 116.750 C 223.480 117.734,223.196 117.843,223.637 117.000 C 224.069 116.175,222.694 117.178,220.580 119.228 C 218.467 121.279,216.370 122.728,215.919 122.450 C 215.469 122.172,214.605 122.869,214.000 124.000 C 213.395 125.131,212.500 125.809,212.011 125.507 C 211.523 125.205,210.758 125.603,210.311 126.391 C 209.296 128.184,199.000 136.430,199.000 135.450 C 199.000 135.054,198.049 135.940,196.886 137.418 C 195.723 138.896,194.548 139.882,194.275 139.608 C 194.001 139.335,192.663 140.436,191.300 142.055 C 189.937 143.675,188.364 145.000,187.805 145.000 C 187.246 145.000,185.900 146.129,184.814 147.510 C 183.728 148.890,182.426 149.763,181.920 149.451 C 181.414 149.138,181.000 149.278,181.000 149.762 C 181.000 150.246,174.120 156.910,165.712 164.571 C 157.303 172.232,148.641 180.561,146.462 183.079 C 144.283 185.598,138.952 191.673,134.616 196.579 C 101.952 233.538,81.023 273.982,68.530 324.286 C 51.458 393.024,57.795 451.151,88.141 504.168 C 111.374 544.759,149.113 577.323,193.500 595.081 C 196.800 596.401,199.775 597.861,200.112 598.326 C 200.448 598.791,200.898 599.062,201.112 598.929 C 201.980 598.388,212.000 601.442,212.000 602.248 C 212.000 602.727,212.412 602.863,212.916 602.552 C 213.420 602.240,215.107 602.527,216.666 603.188 C 218.225 603.850,219.950 604.427,220.500 604.472 C 221.050 604.516,222.063 604.905,222.750 605.335 C 223.438 605.766,224.419 605.859,224.931 605.543 C 225.443 605.226,226.132 605.405,226.463 605.940 C 226.794 606.475,227.730 606.657,228.545 606.344 C 229.359 606.032,230.675 606.315,231.469 606.974 C 232.263 607.633,233.402 607.870,234.000 607.500 C 234.598 607.130,235.723 607.355,236.500 608.000 C 237.277 608.645,238.382 608.882,238.956 608.527 C 239.530 608.172,240.562 608.245,241.250 608.689 C 241.938 609.133,243.850 609.616,245.500 609.762 C 247.150 609.909,250.750 610.254,253.500 610.529 C 265.043 611.683,297.067 611.123,306.000 609.610 C 342.165 603.484,375.704 588.466,407.448 564.183 C 427.887 548.547,447.400 525.055,459.422 501.608 C 479.743 461.975,484.711 413.961,473.089 369.520 C 467.897 349.665,459.274 329.286,448.879 312.302 C 446.614 308.601,444.689 305.107,444.602 304.537 C 444.515 303.966,444.065 302.893,443.601 302.150 C 441.529 298.830,447.056 303.337,454.057 310.677 C 466.394 323.609,484.688 348.493,491.998 362.286 C 493.372 364.879,494.839 367.000,495.257 367.000 C 495.675 367.000,495.573 366.212,495.030 365.250 C 493.520 362.574,487.667 346.679,487.667 345.256 C 487.667 344.565,487.322 344.000,486.901 344.000 C 486.078 344.000,484.474 339.990,484.802 338.750 C 484.911 338.337,484.523 338.000,483.941 338.000 C 483.359 338.000,483.160 337.550,483.500 337.000 C 483.840 336.450,483.566 336.000,482.892 336.000 C 482.218 336.000,481.945 335.721,482.286 335.381 C 482.626 335.040,482.247 334.104,481.443 333.300 C 480.639 332.496,480.237 331.425,480.550 330.919 C 480.862 330.414,480.566 330.000,479.892 330.000 C 479.218 330.000,478.960 329.707,479.318 329.349 C 479.676 328.991,479.188 328.057,478.234 327.275 C 477.077 326.325,476.999 326.067,478.000 326.500 C 478.825 326.857,478.626 326.440,477.559 325.574 C 476.491 324.708,476.015 324.000,476.500 324.000 C 476.985 324.000,476.509 323.292,475.441 322.426 C 474.374 321.560,474.175 321.143,475.000 321.500 C 475.825 321.857,475.626 321.440,474.559 320.574 C 473.491 319.708,473.041 318.986,473.559 318.970 C 474.076 318.953,473.703 318.475,472.729 317.908 C 471.755 317.341,471.190 316.502,471.473 316.043 C 471.757 315.585,471.288 314.941,470.431 314.612 C 469.574 314.283,469.124 313.608,469.431 313.112 C 469.738 312.616,469.252 311.927,468.351 311.581 C 467.451 311.236,466.954 310.713,467.248 310.419 C 467.542 310.125,466.502 308.483,464.938 306.771 C 463.374 305.058,462.307 303.312,462.568 302.890 C 462.829 302.468,462.430 301.758,461.682 301.311 C 460.934 300.865,456.278 295.775,451.336 290.000 C 427.482 262.125,395.238 239.951,363.000 229.250 C 295.862 206.965,217.818 218.921,161.956 260.049 C 151.526 267.728,130.403 288.750,122.296 299.521 C 111.430 313.957,103.437 328.037,95.166 347.312 C 89.922 359.533,88.386 361.719,86.425 359.759 C 86.018 359.351,85.127 359.479,84.447 360.044 C 82.779 361.429,83.419 356.528,86.658 343.122 C 102.024 279.520,144.205 221.281,200.551 185.866 C 229.466 167.693,265.062 155.420,303.500 150.370 C 321.740 147.974,356.847 147.992,375.247 150.408 L 388.995 152.213 399.747 144.226 C 438.575 115.386,480.899 93.689,527.732 78.615 C 542.127 73.981,548.104 73.815,553.600 77.896 C 559.791 82.492,589.804 113.234,590.851 116.051 C 592.053 119.286,591.279 123.438,589.106 125.404 C 588.165 126.255,578.616 128.743,567.461 131.043 C 539.169 136.877,515.490 143.078,493.347 150.452 C 474.401 156.761,446.943 167.697,447.062 168.885 C 447.095 169.223,454.183 172.965,462.812 177.201 C 479.180 185.236,493.135 193.986,507.146 205.000 C 518.035 213.560,538.263 233.765,537.378 235.198 C 536.960 235.873,537.146 236.028,537.853 235.591 C 538.524 235.176,539.307 235.639,539.708 236.687 C 540.090 237.684,541.325 239.322,542.451 240.326 C 543.578 241.331,543.825 241.861,543.000 241.504 C 542.175 241.147,542.628 241.900,544.007 243.178 C 547.676 246.576,550.796 250.514,549.000 249.480 C 547.710 248.737,547.691 248.851,548.863 250.296 C 550.039 251.746,549.970 252.073,548.363 252.680 C 547.338 253.067,545.084 254.760,543.354 256.442 C 541.623 258.124,538.038 261.075,535.386 263.000 C 532.735 264.925,529.848 267.203,528.971 268.062 C 527.310 269.688,512.351 281.399,508.633 283.982 C 507.460 284.798,506.115 286.081,505.644 286.833 C 505.173 287.585,503.986 288.888,503.005 289.728 C 501.303 291.185,501.330 291.497,503.611 296.656 C 504.925 299.626,506.000 302.698,506.000 303.481 C 506.000 304.265,506.496 305.996,507.103 307.327 L 508.207 309.749 513.353 306.342 C 517.143 303.833,519.158 303.096,520.994 303.548 C 524.114 304.315,526.149 305.950,525.430 307.113 C 525.129 307.601,525.434 308.000,526.108 308.000 C 526.782 308.000,527.040 308.293,526.682 308.651 C 526.324 309.009,526.812 309.943,527.766 310.725 C 528.719 311.508,528.893 311.836,528.150 311.453 C 527.062 310.894,527.021 311.170,527.935 312.879 C 528.560 314.046,529.450 315.000,529.914 315.000 C 530.843 315.000,533.617 321.052,533.238 322.250 C 533.107 322.663,533.498 323.000,534.107 323.000 C 534.716 323.000,534.955 323.675,534.638 324.500 C 534.322 325.325,534.468 326.000,534.964 326.000 C 535.706 326.000,537.209 329.002,537.466 331.000 C 537.502 331.275,537.888 332.063,538.324 332.750 C 538.761 333.438,538.754 334.007,538.309 334.015 C 537.864 334.024,538.018 334.361,538.650 334.765 C 539.283 335.169,539.958 336.400,540.150 337.500 C 540.343 338.600,540.826 339.745,541.225 340.043 C 541.623 340.342,542.118 341.467,542.325 342.543 C 542.531 343.620,543.027 345.252,543.427 346.172 C 543.827 347.091,544.245 348.441,544.355 349.172 C 544.466 349.902,544.908 351.063,545.337 351.750 C 545.767 352.438,545.864 353.412,545.553 353.915 C 545.242 354.418,545.433 354.980,545.977 355.165 C 546.521 355.349,547.168 357.075,547.415 359.000 C 547.663 360.925,547.930 362.500,548.009 362.500 C 548.163 362.500,548.947 365.537,549.429 368.000 C 549.590 368.825,549.992 370.175,550.321 371.000 C 551.481 373.906,553.848 388.634,555.050 400.437 C 556.774 417.357,555.756 452.668,553.059 469.500 C 539.789 552.308,498.061 619.447,432.500 663.476 C 417.838 673.322,395.802 685.468,394.664 684.331 C 394.299 683.966,394.000 684.101,394.000 684.632 C 394.000 685.556,386.603 688.743,386.404 687.905 C 386.351 687.682,385.563 688.118,384.654 688.872 C 383.744 689.627,382.993 689.852,382.985 689.372 C 382.976 688.893,382.598 689.085,382.145 689.800 C 381.691 690.515,380.348 691.173,379.160 691.263 C 377.972 691.352,377.000 691.828,377.000 692.320 C 377.000 692.812,376.354 692.966,375.565 692.663 C 374.775 692.360,373.974 692.579,373.784 693.148 C 373.594 693.718,372.215 694.255,370.720 694.342 C 369.225 694.429,368.001 694.864,368.001 695.309 C 368.000 695.754,367.550 695.840,367.000 695.500 C 366.450 695.160,366.000 695.359,366.000 695.941 C 366.000 696.523,365.523 697.000,364.941 697.000 C 364.359 697.000,364.132 696.595,364.438 696.101 C 364.743 695.606,363.926 691.444,362.621 686.851 C 359.229 674.911,358.677 672.760,358.393 670.386 C 358.254 669.224,357.452 666.625,356.611 664.612 C 355.770 662.598,355.319 660.333,355.609 659.577 C 355.899 658.821,355.686 657.924,355.135 657.584 C 354.585 657.243,353.622 654.498,352.996 651.483 C 352.370 648.467,351.445 646.000,350.940 646.000 C 350.434 646.000,345.332 647.317,339.601 648.926 C 323.740 653.380,311.214 655.884,296.690 657.507 C 289.436 658.318,283.191 658.985,282.814 658.990 C 282.437 658.996,282.075 654.163,282.010 648.250 C 281.885 636.874,281.833 636.176,280.586 628.816 L 279.793 624.131 274.646 627.736 C 263.855 635.294,261.149 637.621,258.641 641.500 C 257.219 643.700,254.549 647.075,252.708 649.000 C 250.868 650.925,248.627 653.625,247.730 655.000 C 246.039 657.590,243.764 657.866,235.250 656.516 C 233.463 656.232,230.762 655.844,229.250 655.653 C 223.481 654.926,217.461 653.745,216.500 653.153 C 215.950 652.814,214.276 652.469,212.780 652.387 C 211.284 652.305,209.259 651.885,208.280 651.455 C 207.301 651.025,206.162 650.578,205.750 650.461 C 205.338 650.345,204.662 650.142,204.250 650.010 C 203.838 649.877,203.050 649.686,202.500 649.585 C 196.980 648.567,194.000 647.633,194.000 646.920 C 194.000 646.449,193.325 646.322,192.500 646.638 C 191.675 646.955,191.000 646.730,191.000 646.138 C 191.000 645.547,190.325 645.322,189.500 645.638 C 188.675 645.955,188.000 645.716,188.000 645.107 C 188.000 644.498,187.662 644.086,187.250 644.190 C 185.901 644.533,180.000 642.859,180.000 642.133 C 180.000 641.744,179.170 641.363,178.156 641.287 C 175.293 641.071,154.699 631.539,142.500 624.783 C 81.248 590.862,38.296 539.577,16.448 474.276 C 8.726 451.195,2.913 421.773,1.082 396.500 C 0.638 390.366,0.222 457.718,0.143 548.743 L 0.000 711.986 300.000 711.988 L 600.000 711.991 600.000 355.988 L 600.000 -0.015 415.405 0.008 C 284.739 0.024,230.218 0.348,228.784 1.115 C 227.317 1.901,226.946 1.897,227.438 1.100 C 227.931 0.303,196.742 0.000,114.059 0.000 L 0.000 0.000 0.185 177.750 M245.580 5.753 C 245.123 6.210,239.000 3.175,239.000 2.490 C 239.000 2.239,240.569 2.781,242.487 3.695 C 244.406 4.610,245.797 5.536,245.580 5.753 M223.917 3.365 C 223.688 3.565,222.375 4.265,221.000 4.920 C 218.643 6.042,218.611 6.022,220.441 4.555 C 222.034 3.279,225.289 2.164,223.917 3.365 M270.575 17.758 C 270.123 18.211,262.000 14.170,262.000 13.493 C 262.000 13.236,264.015 14.005,266.478 15.202 C 268.941 16.398,270.785 17.549,270.575 17.758 M295.575 29.758 C 295.123 30.211,287.000 26.170,287.000 25.493 C 287.000 25.236,289.015 26.005,291.478 27.202 C 293.941 28.398,295.785 29.549,295.575 29.758 M320.575 41.758 C 320.123 42.211,312.000 38.170,312.000 37.493 C 312.000 37.236,314.015 38.005,316.478 39.202 C 318.941 40.398,320.785 41.549,320.575 41.758 M327.000 47.358 C 327.000 48.628,326.538 48.061,325.080 45.000 C 323.958 42.643,323.978 42.611,325.445 44.441 C 326.300 45.509,327.000 46.821,327.000 47.358 M326.000 53.441 C 326.000 53.684,325.550 54.160,325.000 54.500 C 324.450 54.840,324.000 54.641,324.000 54.059 C 324.000 53.477,324.450 53.000,325.000 53.000 C 325.550 53.000,326.000 53.198,326.000 53.441 M316.000 59.393 C 316.000 59.609,315.302 60.054,314.448 60.382 C 313.558 60.723,313.157 60.555,313.507 59.989 C 314.094 59.038,316.000 58.583,316.000 59.393 M309.000 63.393 C 309.000 63.609,308.302 64.054,307.448 64.382 C 306.558 64.723,306.157 64.555,306.507 63.989 C 307.094 63.038,309.000 62.583,309.000 63.393 M302.000 67.393 C 302.000 67.609,301.302 68.054,300.448 68.382 C 299.558 68.723,299.157 68.555,299.507 67.989 C 300.094 67.038,302.000 66.583,302.000 67.393 M289.000 75.000 C 288.175 75.533,287.050 75.969,286.500 75.969 C 285.950 75.969,286.175 75.533,287.000 75.000 C 287.825 74.467,288.950 74.031,289.500 74.031 C 290.050 74.031,289.825 74.467,289.000 75.000 M284.000 78.000 C 283.175 78.533,282.050 78.969,281.500 78.969 C 280.950 78.969,281.175 78.533,282.000 78.000 C 282.825 77.467,283.950 77.031,284.500 77.031 C 285.050 77.031,284.825 77.467,284.000 78.000 M280.000 80.393 C 280.000 80.609,279.302 81.054,278.448 81.382 C 277.558 81.723,277.157 81.555,277.507 80.989 C 278.094 80.038,280.000 79.583,280.000 80.393 M271.559 85.532 C 270.491 86.339,269.141 86.984,268.559 86.965 C 267.976 86.945,268.625 86.286,270.000 85.500 C 273.239 83.648,274.028 83.664,271.559 85.532 M265.000 89.465 C 265.000 89.720,263.988 90.420,262.750 91.020 C 260.589 92.067,260.577 92.049,262.441 90.555 C 264.481 88.921,265.000 88.700,265.000 89.465 M554.896 256.838 C 556.603 259.498,558.000 262.061,558.000 262.533 C 558.000 263.005,556.739 261.391,555.197 258.946 C 551.026 252.330,550.843 252.000,551.337 252.000 C 551.587 252.000,553.188 254.177,554.896 256.838 M563.382 270.552 C 563.723 271.442,563.555 271.843,562.989 271.493 C 562.445 271.157,562.000 270.459,562.000 269.941 C 562.000 268.503,562.717 268.820,563.382 270.552 M567.683 282.188 C 567.364 282.985,567.127 282.748,567.079 281.583 C 567.036 280.529,567.272 279.939,567.604 280.271 C 567.936 280.603,567.972 281.466,567.683 282.188 M567.000 285.944 C 567.000 287.401,562.067 292.668,562.032 291.250 C 562.014 290.563,562.460 290.000,563.021 290.000 C 563.583 290.000,564.555 288.875,565.182 287.500 C 566.373 284.885,567.000 284.349,567.000 285.944 M555.500 294.000 C 555.160 294.550,554.346 294.993,553.691 294.985 C 552.975 294.975,553.099 294.582,554.000 294.000 C 555.921 292.758,556.267 292.758,555.500 294.000 M551.000 296.000 C 550.175 296.533,549.050 296.969,548.500 296.969 C 547.950 296.969,548.175 296.533,549.000 296.000 C 549.825 295.467,550.950 295.031,551.500 295.031 C 552.050 295.031,551.825 295.467,551.000 296.000 M544.500 298.000 C 544.160 298.550,543.346 298.993,542.691 298.985 C 541.975 298.975,542.099 298.582,543.000 298.000 C 544.921 296.758,545.267 296.758,544.500 298.000 M540.000 300.000 C 539.175 300.533,538.050 300.969,537.500 300.969 C 536.950 300.969,537.175 300.533,538.000 300.000 C 538.825 299.467,539.950 299.031,540.500 299.031 C 541.050 299.031,540.825 299.467,540.000 300.000 M533.500 302.000 C 533.160 302.550,532.346 302.993,531.691 302.985 C 530.975 302.975,531.099 302.582,532.000 302.000 C 533.921 300.758,534.267 300.758,533.500 302.000 M529.000 304.000 C 528.175 304.533,527.050 304.969,526.500 304.969 C 525.950 304.969,526.175 304.533,527.000 304.000 C 527.825 303.467,528.950 303.031,529.500 303.031 C 530.050 303.031,529.825 303.467,529.000 304.000 M85.124 362.267 C 84.136 363.247,84.022 363.132,84.564 361.707 C 84.940 360.721,85.499 360.166,85.807 360.474 C 86.115 360.781,85.808 361.588,85.124 362.267 M258.729 659.604 C 258.397 659.936,257.534 659.972,256.813 659.683 C 256.015 659.364,256.252 659.127,257.417 659.079 C 258.471 659.036,259.061 659.272,258.729 659.604 M348.729 701.604 C 348.397 701.936,347.534 701.972,346.813 701.683 C 346.015 701.364,346.252 701.127,347.417 701.079 C 348.471 701.036,349.061 701.272,348.729 701.604 M340.729 703.604 C 340.397 703.936,339.534 703.972,338.813 703.683 C 338.015 703.364,338.252 703.127,339.417 703.079 C 340.471 703.036,341.061 703.272,340.729 703.604 M336.729 704.604 C 336.397 704.936,335.534 704.972,334.813 704.683 C 334.015 704.364,334.252 704.127,335.417 704.079 C 336.471 704.036,337.061 704.272,336.729 704.604 M308.250 709.662 C 307.563 709.940,306.438 709.940,305.750 709.662 C 305.063 709.385,305.625 709.158,307.000 709.158 C 308.375 709.158,308.938 709.385,308.250 709.662 M300.269 710.656 C 299.592 710.930,298.242 710.947,297.269 710.693 C 296.296 710.439,296.850 710.215,298.500 710.195 C 300.150 710.175,300.946 710.382,300.269 710.656 " stroke="none" fill="#ffffff" fill-rule="evenodd"/></svg>