<?xml version="1.0" standalone="no"?>
<!DOCTYPE svg PUBLIC "-//W3C//DTD SVG 20010904//EN"
        "http://www.w3.org/TR/2001/REC-SVG-20010904/DTD/svg10.dtd">
<svg version="1.0" xmlns="http://www.w3.org/2000/svg"
     width="300.000000pt" height="356.000000pt" viewBox="0 0 300.000000 356.000000"
     preserveAspectRatio="xMidYMid meet">
    <metadata>
        Created by potrace 1.10, written by Peter Selinger 2001-2011
    </metadata>
    <g transform="translate(0.000000,356.000000) scale(0.100000,-0.100000)"
       fill="#000000" stroke="none">
        <path fill="currentColor" d="M1037 3491 c-133 -91 -231 -174 -367 -310 -340 -342 -576 -778 -646
-1196 -21 -126 -12 -524 14 -636 101 -424 341 -737 711 -928 64 -32 149 -71
189 -85 78 -28 231 -61 326 -70 33 -3 61 -8 63 -9 2 -2 -5 -50 -14 -106 -23
-135 -23 -135 98 -139 330 -10 698 145 954 402 257 258 398 588 412 966 8 218
-35 424 -122 589 -19 36 -34 65 -32 66 1 1 42 16 92 34 94 34 125 53 125 80 0
29 -116 197 -190 275 -96 101 -202 180 -327 242 l-102 52 120 46 c133 52 306
101 474 136 106 22 145 40 145 65 0 17 -215 225 -233 225 -17 0 -179 -54 -264
-89 -136 -54 -320 -158 -443 -250 -69 -52 -79 -56 -110 -49 -73 15 -267 20
-360 9 -254 -30 -466 -113 -649 -254 -93 -72 -210 -197 -277 -297 -57 -87
-130 -227 -122 -235 2 -2 19 26 38 63 19 37 47 85 63 107 15 22 39 58 54 80
41 64 232 247 309 298 183 118 342 176 577 207 101 13 182 13 306 -1 113 -13
87 -23 260 94 170 116 526 277 611 277 30 0 196 -161 188 -182 -4 -9 -51 -24
-135 -43 -246 -53 -510 -143 -549 -186 -26 -28 -11 -46 72 -92 186 -102 340
-235 435 -375 79 -118 77 -136 -16 -166 -72 -23 -115 -52 -115 -76 0 -12 8
-37 19 -58 54 -106 104 -271 118 -386 11 -88 7 -271 -7 -373 -39 -279 -173
-556 -361 -750 -218 -224 -450 -344 -789 -406 -210 -39 -204 -38 -225 -23 -18
13 -19 19 -7 100 16 112 17 114 60 119 34 3 33 4 -9 5 -32 1 -52 8 -64 22 -11
12 -31 20 -50 20 -113 0 -334 60 -480 130 -266 128 -456 304 -593 547 -82 147
-131 298 -171 539 -27 157 -26 224 4 402 67 388 203 693 455 1022 89 116 328
355 430 431 118 88 210 149 225 149 7 0 80 -32 161 -71 220 -104 254 -122 254
-135 0 -6 -47 -39 -105 -73 -182 -107 -476 -308 -515 -351 -3 -3 -18 -16 -35
-29 -65 -49 -181 -160 -257 -245 -117 -132 -205 -271 -267 -420 -137 -331
-164 -663 -76 -951 139 -458 574 -775 1063 -775 275 0 538 107 751 305 197
184 306 467 287 744 -6 88 -30 201 -43 201 -3 0 -3 -6 0 -14 24 -63 29 -313 8
-421 -19 -98 -77 -237 -136 -325 -129 -196 -368 -362 -611 -427 -86 -22 -119
-26 -249 -26 -166 -1 -271 18 -415 75 -351 138 -610 463 -665 836 -21 145 -6
357 39 532 92 364 283 638 642 925 133 105 346 249 513 344 130 74 145 86 132
108 -12 23 -439 223 -475 223 -23 0 -57 -17 -119 -59z"/>
        <path d="M1295 2486 c-209 -29 -427 -132 -573 -270 -50 -47 -140 -161 -170
-214 -23 -41 -4 -22 41 41 84 118 228 241 360 308 67 34 216 86 273 95 21 3
57 10 79 14 22 5 108 8 190 6 122 -3 169 -9 249 -30 296 -77 544 -290 687
-589 60 -126 81 -219 86 -387 6 -167 -15 -296 -68 -430 -42 -105 -44 -111 -15
-60 48 86 95 251 108 381 32 318 -78 608 -321 847 -245 240 -558 338 -926 288z"/>
    </g>
</svg>
