<svg width="24" height="24" viewBox="0 0 24 24" fill="none" xmlns="http://www.w3.org/2000/svg">
<path d="M8.40625 9.41875V9.425C7.95 10.0719 7.92188 11.0313 7.93438 11.55V13.0438C7.93438 14.0281 7.13125 14.8312 6.15313 14.8312H4.03125C3.04687 14.8312 2.25 14.0313 2.25 13.0438V10.9594C2.25 9.97187 3.04687 9.17188 4.03125 9.17188H5.28437C5.50937 9.17188 6.05312 9.1625 6.29062 9.11563C6.49375 9.075 7.15 8.92812 7.775 8.45937C7.84375 8.40937 7.90625 8.35938 7.95937 8.3125C7.95937 8.3125 8.10312 8.19063 8.23125 8.05625C8.58437 7.69063 8.85625 7.16875 8.85625 7.16875C8.94375 7.00625 9.14375 6.59375 9.2625 6.02187C9.31875 5.74375 9.34375 5.48438 9.3625 5.27188L9.42813 4.03125C9.42813 3.04687 10.2281 2.24688 11.2125 2.24688H13.2844C14.2688 2.24688 15.0687 3.04687 15.0687 4.03125V6.11875C15.0687 7.10313 14.2688 7.90312 13.2844 7.90312H11.5812C11.1906 7.9125 10.8656 7.95312 10.625 7.99687C10.1844 8.07812 9.95625 8.17188 9.8875 8.2M5.06875 8.15625C3.375 8.15625 2 6.77812 2 5.07812C2 3.37812 3.375 2 5.06875 2C6.7625 2 8.1375 3.37812 8.1375 5.07812C8.1375 6.77812 6.7625 8.15625 5.06875 8.15625ZM5.06875 15.8438C6.7625 15.8438 8.1375 17.2219 8.1375 18.9219C8.1375 20.6219 6.7625 22 5.06875 22C3.375 22 2 20.6219 2 18.9219C2 17.2219 3.375 15.8438 5.06875 15.8438ZM22 6.17812C22 7.13125 21.225 7.90625 20.2719 7.90625C19.775 7.87813 19.3594 7.89375 19.0563 7.9125C18.5438 7.94687 18.2437 7.96562 17.8469 8.0875C17.4 8.225 17.0813 8.41563 16.9 8.525C16.8219 8.57188 16.5125 8.7625 16.1531 9.08125C15.95 9.2625 15.7562 9.43437 15.5562 9.70937C15.2781 10.0937 15.1563 10.4437 15.0938 10.6312C14.925 11.1375 14.8938 11.8406 14.9031 12.1813L14.8844 13.0969C14.8844 14.0531 14.1125 14.8281 13.1594 14.8281H10.9688C10.0156 14.8281 9.24375 14.0531 9.24375 13.0969V10.9C9.24375 9.94375 10.0156 9.16875 10.9688 9.16875H12.2937C12.7625 9.16875 13.6937 9.20937 14.4844 8.91875C15.1625 8.67187 15.8406 7.98438 16.1062 7.23125C16.3594 6.46563 16.3531 5.44687 16.3531 5.44687L16.3594 3.975C16.3594 3.02187 17.1344 2.24688 18.0875 2.24688H20.2719C21.225 2.24688 22 3.02187 22 3.975V6.17812Z" fill="currentColor"/>
</svg>
