<svg viewBox="0 0 135 135" fill="currentColor" xmlns="http://www.w3.org/2000/svg">
<path d="M54.9395 5.8623C58.085 4.04621 61.9609 4.04621 65.1064 5.8623L72.8164 10.3125C61.6546 16.6074 49.3574 24.1661 39.9541 31.9697C35.1457 35.9602 31.0735 40.0301 28.2979 44.0449C25.5254 48.0551 24.01 52.063 24.4121 55.9072C24.9587 61.1299 27.8341 64.5452 31.75 67.0137C35.6397 69.4656 40.5982 71.0104 45.376 72.502C49.5467 73.804 53.5777 75.0648 56.7773 76.8438C59.9658 78.6165 62.2565 80.8644 63.0439 84.1094C63.8363 87.3748 63.1373 91.7685 60.0557 97.8936C57.0098 103.947 51.6666 111.628 43.2744 121.483L9.58301 102.031C6.43756 100.215 4.5 96.8587 4.5 93.2266V40.8535C4.5 37.2214 6.4376 33.865 9.58301 32.0488L54.9395 5.8623Z" fill="currentColor" stroke="currentColor"/>
<path fill-rule="evenodd" clip-rule="evenodd" d="M73.8372 10.9609C51.1257 23.7125 23.3829 41.7923 24.9219 56.4983C25.9749 66.5604 35.9489 69.6741 45.5372 72.6673C62.1655 77.8583 77.6338 82.6872 43.3991 122.768L48.887 125.936C51.2056 123.686 53.57 121.419 55.9386 119.148C82.4976 93.6838 109.595 67.7038 78.7378 58.6068C41.3332 47.5796 53.6977 31.8312 80.5933 14.8616L73.8372 10.9609Z" fill="white"/>
<path d="M110.417 32.5044C113.563 34.3205 115.5 37.677 115.5 41.3091V93.6821C115.5 97.3141 113.562 100.671 110.417 102.487L65.0597 128.673C61.9141 130.489 58.0392 130.489 54.8937 128.673L49.6525 125.647C51.8171 123.549 54.0188 121.438 56.2257 119.322C62.8633 112.958 69.5471 106.55 75.3507 100.38C81.1508 94.2143 86.0953 88.2618 89.2433 82.8032C92.3821 77.3605 93.7974 72.2997 92.3429 67.9771C90.8816 63.6345 86.5948 60.2329 78.8204 57.9409C70.0187 55.3461 63.9854 52.4126 60.3175 49.2407C56.6711 46.0873 55.3906 42.7285 55.9894 39.2046C56.5968 35.6304 59.1534 31.7795 63.4425 27.7241C67.6727 23.7244 73.5347 19.5765 80.7062 15.3511L110.417 32.5044Z" fill="currentColor" stroke="currentColor"/>
</svg>
